<svg width="160" height="184" viewBox="0 0 160 184" fill="none" xmlns="http://www.w3.org/2000/svg">
<circle cx="80.5" cy="89.5" r="55.5" fill="url(#paint0_linear_250_5)"/>
<path d="M87.9736 128.974C83.4157 129.757 78.8679 129.74 74.3304 128.925C69.8139 128.077 65.5586 126.361 61.5647 123.779C57.1162 120.903 53.4361 117.372 50.5244 113.188C47.6126 109.003 45.5868 104.516 44.447 99.727C43.3282 94.9056 43.1517 89.9799 43.9175 84.9497C44.6834 79.9195 46.5464 75.1152 49.5066 70.5368C51.3541 67.6794 53.4795 65.1398 55.8829 62.918C58.3398 60.6848 60.9572 58.8087 63.7352 57.2895C66.5456 55.7914 69.4898 54.656 72.5678 53.8835C75.6993 53.0994 78.8529 52.744 82.0286 52.8174C85.2043 52.8907 88.3754 53.3985 91.5419 54.3407C94.7083 55.2829 97.769 56.7093 100.724 58.6198C103.419 60.3623 105.802 62.4095 107.873 64.7614C109.944 67.1133 111.663 69.6525 113.031 72.3789C114.432 75.1263 115.47 78.0076 116.145 81.0226C116.82 84.0376 117.12 87.0633 117.045 90.0996C116.991 93.1034 116.523 96.0702 115.642 98.9998C114.814 101.918 113.56 104.676 111.881 107.274C110.789 108.962 109.864 110.321 109.107 111.351C108.381 112.401 107.582 113.104 106.707 113.46C105.854 113.783 104.807 113.728 103.568 113.295C102.382 112.85 100.766 111.967 98.7201 110.644L63.6516 87.9703C62.6327 90.2584 62.1589 92.4155 62.2303 94.4415C62.3341 96.4886 62.7625 98.3541 63.5155 100.038C64.2895 101.69 65.2916 103.166 66.5219 104.468C67.7521 105.77 69.0167 106.841 70.3155 107.681C71.4845 108.437 72.7594 109.1 74.1402 109.67C75.5421 110.208 76.9372 110.65 78.3256 110.995C79.7675 111.329 81.1272 111.54 82.4048 111.629C83.7358 111.707 84.8825 111.643 85.8448 111.436C86.6373 111.35 87.2751 111.325 87.7582 111.361C88.2949 111.386 88.7742 111.535 89.1963 111.807C89.6185 112.08 89.9461 112.499 90.1793 113.065C90.4449 113.651 90.6753 114.398 90.8704 115.307L92.2543 124.49C92.3386 125.143 92.314 125.68 92.1804 126.1C92.0679 126.488 91.8962 126.86 91.6652 127.217C91.2454 127.867 90.6994 128.319 90.0273 128.575C89.3762 128.799 88.6916 128.932 87.9736 128.974ZM90.7781 73.2547C89.5117 72.436 88.1099 71.898 86.5725 71.6407C85.0887 71.372 83.5543 71.3238 81.9694 71.4963C80.3845 71.6687 78.8235 72.0178 77.2864 72.5434C75.7818 73.0901 74.4129 73.7475 73.1796 74.5156L98.0685 90.6076C98.2054 88.9004 98.2143 87.2486 98.0954 85.6522C98.0089 84.0768 97.7085 82.5473 97.1943 81.0637C96.7125 79.6011 95.953 78.2122 94.9156 76.8968C93.9107 75.6024 92.5315 74.3884 90.7781 73.2547Z" fill="url(#paint1_linear_250_5)"/>
<defs>
<linearGradient id="paint0_linear_250_5" x1="80.5" y1="34" x2="80.5" y2="145" gradientUnits="userSpaceOnUse">
<stop stop-color="#CB63FC"/>
<stop offset="1" stop-color="#9663FC"/>
</linearGradient>
<linearGradient id="paint1_linear_250_5" x1="92" y1="64" x2="44.5" y2="145.5" gradientUnits="userSpaceOnUse">
<stop stop-color="white"/>
<stop offset="1" stop-color="#D9C5FF"/>
</linearGradient>
</defs>
</svg>
