<svg width="262" height="67" viewBox="0 0 262 67" fill="none" xmlns="http://www.w3.org/2000/svg">
<path d="M3.67175 54V22.704H10.5838L12.5038 28.912L9.30375 28.656C10.3704 27.4187 11.5864 26.288 12.9518 25.264C14.3171 24.24 15.8104 23.4293 17.4318 22.832C19.0531 22.2347 20.7384 21.936 22.4878 21.936C24.5784 21.936 26.2424 22.2987 27.4798 23.024C28.7598 23.7067 29.7198 24.6667 30.3598 25.904C31.0424 27.1413 31.4904 28.5493 31.7038 30.128C31.9598 31.664 32.0878 33.264 32.0878 34.928V54H22.7438V35.44C22.7438 33.648 22.4238 32.4747 21.7838 31.92C21.1438 31.3227 20.3544 31.024 19.4158 31.024C18.0931 31.024 16.7918 31.4293 15.5118 32.24C14.2318 33.008 13.0798 34.0107 12.0558 35.248L10.3918 30.512H13.0158V54H3.67175ZM41.8158 54V35.44C41.8158 33.648 41.4958 32.4747 40.8558 31.92C40.2584 31.3227 39.4904 31.024 38.5518 31.024C37.1864 31.024 35.8638 31.4293 34.5838 32.24C33.3038 33.008 32.1518 34.0107 31.1278 35.248L28.3758 28.656C29.4851 27.4187 30.7224 26.288 32.0878 25.264C33.4531 24.24 34.9251 23.4293 36.5037 22.832C38.1251 22.2347 39.8104 21.936 41.5598 21.936C43.6504 21.936 45.3358 22.2987 46.6158 23.024C47.8958 23.7067 48.8558 24.6667 49.4958 25.904C50.1358 27.1413 50.5838 28.5493 50.8398 30.128C51.0958 31.664 51.2238 33.264 51.2238 34.928V54H41.8158ZM70.9333 54.576C67.8186 54.576 65.0666 53.9147 62.6773 52.592C60.3306 51.2693 58.4959 49.392 57.1733 46.96C55.8933 44.528 55.2533 41.6693 55.2533 38.384C55.2533 35.1413 55.8933 32.2827 57.1733 29.808C58.4959 27.3333 60.3306 25.4133 62.6773 24.048C65.0666 22.64 67.8186 21.936 70.9333 21.936C74.1333 21.936 76.9066 22.6613 79.2533 24.112C81.5999 25.5627 83.4133 27.5253 84.6933 30C85.9733 32.432 86.6133 35.184 86.6133 38.256C86.6133 38.8107 86.5919 39.344 86.5493 39.856C86.5066 40.368 86.4639 40.7733 86.4213 41.072H62.5493V34.416H79.2533L78.1653 37.168C78.1653 34.8213 77.5679 32.9013 76.3733 31.408C75.2213 29.9147 73.4293 29.168 70.9973 29.168C68.8213 29.168 67.0719 29.8293 65.7493 31.152C64.4693 32.4747 63.8293 34.224 63.8293 36.4V39.92C63.8293 42.2667 64.4906 44.1013 65.8133 45.424C67.1786 46.704 69.0559 47.344 71.4453 47.344C73.4506 47.344 75.0293 46.9387 76.1813 46.128C77.3759 45.3173 78.3786 44.3147 79.1893 43.12L85.5253 46.64C84.1599 49.1573 82.2399 51.12 79.7653 52.528C77.2906 53.8933 74.3466 54.576 70.9333 54.576ZM101.607 54.768C99.3028 54.768 97.4254 54.4267 95.9748 53.744C94.5668 53.0613 93.4574 52.1227 92.6468 50.928C91.8788 49.6907 91.3454 48.304 91.0468 46.768C90.7908 45.1893 90.6628 43.5253 90.6628 41.776V22.704H100.007V41.264C100.007 43.0133 100.369 44.1867 101.095 44.784C101.82 45.3387 102.716 45.616 103.783 45.616C104.721 45.616 105.639 45.4667 106.535 45.168C107.431 44.8267 108.305 44.3573 109.159 43.76C110.012 43.12 110.78 42.352 111.463 41.456L113.063 46.192H110.439V22.704H119.847V54H112.871L110.951 47.792L114.151 48.048C113.127 49.2427 111.932 50.3733 110.567 51.44C109.244 52.464 107.836 53.2747 106.343 53.872C104.849 54.4693 103.271 54.768 101.607 54.768ZM132.116 54.64C130.964 54.64 129.898 54.3413 128.916 53.744C127.935 53.1467 127.146 52.3573 126.548 51.376C125.951 50.3947 125.652 49.328 125.652 48.176C125.652 46.9813 125.951 45.8933 126.548 44.912C127.146 43.9307 127.935 43.1627 128.916 42.608C129.898 42.0107 130.964 41.712 132.116 41.712C133.354 41.712 134.463 42.0107 135.444 42.608C136.426 43.1627 137.194 43.9307 137.748 44.912C138.346 45.8933 138.644 46.9813 138.644 48.176C138.644 49.328 138.346 50.3947 137.748 51.376C137.194 52.3573 136.426 53.1467 135.444 53.744C134.463 54.3413 133.354 54.64 132.116 54.64Z" fill="white"/>
<path d="M161.764 54.768C158.991 54.768 156.58 54.1493 154.532 52.912C152.527 51.632 150.97 49.776 149.86 47.344C148.751 44.912 148.196 41.9253 148.196 38.384C148.196 34.9707 148.751 32.048 149.86 29.616C151.012 27.1413 152.612 25.2427 154.66 23.92C156.708 22.5973 159.098 21.936 161.828 21.936C164.687 21.936 167.183 22.64 169.316 24.048C171.492 25.4133 173.178 27.3333 174.372 29.808C175.61 32.2827 176.228 35.1413 176.228 38.384C176.228 41.584 175.61 44.4213 174.372 46.896C173.135 49.3707 171.428 51.312 169.252 52.72C167.076 54.0853 164.58 54.768 161.764 54.768ZM144.484 66.16V22.704H151.46L153.828 30.704H153.252V45.296H153.828V66.16H144.484ZM160.036 46C161.956 46 163.535 45.296 164.772 43.888C166.052 42.4373 166.692 40.6027 166.692 38.384C166.692 36.1227 166.052 34.288 164.772 32.88C163.535 31.4293 161.956 30.704 160.036 30.704C158.159 30.704 156.58 31.4293 155.3 32.88C154.02 34.288 153.38 36.1013 153.38 38.32C153.38 40.5813 154.02 42.4373 155.3 43.888C156.58 45.296 158.159 46 160.036 46ZM190.519 54H181.175V22.704H190.519V54ZM180.343 12.848C180.343 11.184 180.833 9.84 181.815 8.816C182.839 7.792 184.183 7.28 185.847 7.28C187.511 7.28 188.833 7.792 189.815 8.816C190.839 9.84 191.351 11.184 191.351 12.848C191.351 14.4693 190.839 15.792 189.815 16.816C188.833 17.7973 187.511 18.288 185.847 18.288C184.183 18.288 182.839 17.7973 181.815 16.816C180.833 15.792 180.343 14.4693 180.343 12.848ZM216.689 54L209.649 42.928H212.017L205.041 54H194.609L206.513 36.848L206.641 39.856L194.737 22.704H205.233L212.145 33.712H209.521L216.497 22.704H226.993L215.025 39.856L215.217 36.848L227.185 54H216.689ZM256.502 54.32C254.924 54.32 253.473 54 252.15 53.36C250.828 52.72 249.761 51.7387 248.95 50.416C248.14 49.0507 247.734 47.2373 247.734 44.976V10.416H257.014V41.648C257.014 43.2267 257.292 44.2507 257.846 44.72C258.444 45.1467 259.19 45.36 260.086 45.36V54C259.66 54.0853 259.084 54.1493 258.358 54.192C257.676 54.2773 257.057 54.32 256.502 54.32Z" fill="black"/>
<path d="M242.751 53.8287C240.832 54.1558 238.916 54.1489 237.005 53.808C235.103 53.4536 233.311 52.7368 231.629 51.6577C229.755 50.4558 228.205 48.9805 226.979 47.2317C225.753 45.4829 224.9 43.6079 224.42 41.6067C223.948 39.592 223.874 37.5335 224.197 35.4315C224.519 33.3295 225.304 31.3218 226.551 29.4086C227.329 28.2145 228.224 27.1533 229.236 26.2248C230.271 25.2916 231.373 24.5076 232.543 23.8728C233.727 23.2467 234.967 22.7723 236.263 22.4494C237.582 22.1218 238.91 21.9733 240.248 22.0039C241.585 22.0346 242.921 22.2468 244.254 22.6405C245.588 23.0343 246.877 23.6303 248.121 24.4287C249.256 25.1568 250.26 26.0123 251.132 26.9951C252.004 27.978 252.729 29.039 253.305 30.1784C253.895 31.3265 254.332 32.5305 254.616 33.7904C254.901 35.0504 255.027 36.3148 254.995 37.5836C254.972 38.8388 254.775 40.0786 254.404 41.3029C254.056 42.5223 253.528 43.6748 252.82 44.7603C252.36 45.4659 251.971 46.0338 251.652 46.4641C251.346 46.9031 251.01 47.1969 250.641 47.3454C250.282 47.4804 249.841 47.4574 249.319 47.2765C248.82 47.0907 248.139 46.7215 247.277 46.1688L232.508 36.6938C232.079 37.6499 231.879 38.5514 231.909 39.398C231.953 40.2535 232.133 41.033 232.451 41.7368C232.777 42.4269 233.199 43.044 233.717 43.5881C234.235 44.1321 234.767 44.5796 235.314 44.9305C235.807 45.2464 236.344 45.5235 236.925 45.7619C237.516 45.9867 238.103 46.1712 238.688 46.3154C239.295 46.4549 239.868 46.5433 240.406 46.5806C240.967 46.6131 241.45 46.5862 241.855 46.4999C242.189 46.4638 242.457 46.4534 242.661 46.4685C242.887 46.4787 243.089 46.5409 243.266 46.655C243.444 46.769 243.582 46.9441 243.68 47.1803C243.792 47.4253 243.889 47.7376 243.971 48.1174L244.554 51.9548C244.59 52.2277 244.579 52.452 244.523 52.6275C244.476 52.7895 244.403 52.9452 244.306 53.0944C244.129 53.3658 243.899 53.555 243.616 53.6621C243.342 53.7555 243.054 53.8111 242.751 53.8287ZM243.933 30.5444C243.399 30.2022 242.809 29.9774 242.161 29.8699C241.536 29.7576 240.89 29.7375 240.223 29.8095C239.555 29.8816 238.898 30.0275 238.25 30.2471C237.617 30.4756 237.04 30.7503 236.521 31.0713L247.003 37.7959C247.061 37.0825 247.064 36.3922 247.014 35.7251C246.978 35.0667 246.851 34.4276 246.635 33.8076C246.432 33.1964 246.112 32.616 245.675 32.0663C245.252 31.5255 244.671 31.0181 243.933 30.5444Z" fill="white"/>
</svg>
