<svg width="312" height="189" viewBox="0 0 312 189" fill="none" xmlns="http://www.w3.org/2000/svg">
<path d="M260.963 26.882C260.963 25.6447 261.273 24.6007 261.891 23.75C262.51 22.8993 263.573 22.474 265.081 22.474H279.291C279.678 22.474 280.084 22.59 280.509 22.822C280.935 23.0153 281.321 23.3053 281.669 23.692C282.056 24.0787 282.365 24.5427 282.597 25.084C282.868 25.6253 283.003 26.2247 283.003 26.882V113.534C283.003 115.003 282.578 116.125 281.727 116.898C280.915 117.633 279.852 118 278.537 118H265.081C263.573 118 262.51 117.633 261.891 116.898C261.273 116.125 260.963 115.003 260.963 113.534V26.882Z" fill="black"/>
<path d="M239.974 133.974C235.416 134.757 230.868 134.74 226.33 133.925C221.814 133.077 217.559 131.361 213.565 128.779C209.116 125.903 205.436 122.372 202.524 118.188C199.613 114.003 197.587 109.516 196.447 104.727C195.328 99.9056 195.152 94.9799 195.918 89.9497C196.683 84.9195 198.546 80.1152 201.507 75.5368C203.354 72.6794 205.48 70.1398 207.883 67.918C210.34 65.6848 212.957 63.8087 215.735 62.2895C218.546 60.7914 221.49 59.656 224.568 58.8835C227.699 58.0994 230.853 57.744 234.029 57.8174C237.204 57.8907 240.375 58.3985 243.542 59.3407C246.708 60.2829 249.769 61.7093 252.724 63.6198C255.419 65.3623 257.802 67.4095 259.873 69.7614C261.944 72.1133 263.663 74.6525 265.031 77.3789C266.432 80.1263 267.47 83.0076 268.145 86.0226C268.82 89.0376 269.12 92.0633 269.045 95.0996C268.991 98.1034 268.523 101.07 267.642 104C266.814 106.918 265.56 109.676 263.881 112.274C262.789 113.962 261.864 115.321 261.107 116.351C260.381 117.401 259.582 118.104 258.707 118.46C257.854 118.783 256.807 118.728 255.568 118.295C254.382 117.85 252.766 116.967 250.72 115.644L215.652 92.9703C214.633 95.2584 214.159 97.4155 214.23 99.4415C214.334 101.489 214.763 103.354 215.516 105.038C216.29 106.69 217.292 108.166 218.522 109.468C219.752 110.77 221.017 111.841 222.316 112.681C223.484 113.437 224.759 114.1 226.14 114.67C227.542 115.208 228.937 115.65 230.326 115.995C231.767 116.329 233.127 116.54 234.405 116.629C235.736 116.707 236.882 116.643 237.845 116.436C238.637 116.35 239.275 116.325 239.758 116.361C240.295 116.386 240.774 116.535 241.196 116.807C241.618 117.08 241.946 117.499 242.179 118.065C242.445 118.651 242.675 119.398 242.87 120.307L244.254 129.49C244.339 130.143 244.314 130.68 244.18 131.1C244.068 131.488 243.896 131.86 243.665 132.217C243.245 132.867 242.699 133.319 242.027 133.575C241.376 133.799 240.692 133.932 239.974 133.974ZM242.778 78.2547C241.512 77.436 240.11 76.898 238.573 76.6407C237.089 76.372 235.554 76.3238 233.969 76.4963C232.384 76.6687 230.823 77.0178 229.286 77.5434C227.782 78.0901 226.413 78.7475 225.18 79.5156L250.068 95.6076C250.205 93.9004 250.214 92.2486 250.095 90.6522C250.009 89.0768 249.709 87.5473 249.194 86.0637C248.713 84.6011 247.953 83.2122 246.916 81.8968C245.911 80.6024 244.532 79.3884 242.778 78.2547Z" fill="url(#paint0_linear_243_7)"/>
<path d="M8.468 45.036C8.97067 44.6107 9.49267 44.34 10.034 44.224C10.5753 44.108 11.0973 44.05 11.6 44.05H20.358C21.0927 44.05 21.692 44.166 22.156 44.398C22.6587 44.63 23.0647 44.9587 23.374 45.384C23.6833 45.7707 23.9347 46.2347 24.128 46.776C24.36 47.2787 24.5727 47.8393 24.766 48.458L27.202 55.476C28.2847 54.084 29.3673 52.6727 30.45 51.242C31.5713 49.7727 32.886 48.458 34.394 47.298C35.902 46.0993 37.7 45.1133 39.788 44.34C41.876 43.5667 44.428 43.18 47.444 43.18C52.7413 43.18 57.6133 44.166 62.06 46.138C66.5453 48.0713 70.3927 50.7587 73.602 54.2C76.85 57.6027 79.3827 61.624 81.2 66.264C83.0173 70.8653 83.926 75.8533 83.926 81.228C83.926 86.564 83.0173 91.552 81.2 96.192C79.3827 100.832 76.85 104.873 73.602 108.314C70.3927 111.717 66.5453 114.404 62.06 116.376C57.6133 118.348 52.7413 119.334 47.444 119.334C44.9307 119.334 42.7653 119.025 40.948 118.406C39.1307 117.826 37.5067 117.053 36.076 116.086C34.684 115.119 33.4467 114.056 32.364 112.896C31.2813 111.736 30.218 110.576 29.174 109.416V136.444C29.174 137.604 28.826 138.59 28.13 139.402C27.434 140.214 26.3513 140.62 24.882 140.62H11.6C11.136 140.62 10.6333 140.523 10.092 140.33C9.55067 140.137 9.048 139.866 8.584 139.518C8.12 139.17 7.73333 138.725 7.424 138.184C7.11467 137.681 6.96 137.101 6.96 136.444V48.342C6.96 47.5687 7.09533 46.9307 7.366 46.428C7.67533 45.9253 8.04267 45.4613 8.468 45.036ZM62.64 81.228C62.64 78.7533 62.234 76.414 61.422 74.21C60.61 71.9673 59.4693 70.0147 58 68.352C56.5307 66.6893 54.7713 65.3747 52.722 64.408C50.6727 63.4413 48.4107 62.958 45.936 62.958C43.5 62.958 41.18 63.422 38.976 64.35C36.8107 65.2393 34.8967 66.4767 33.234 68.062C31.61 69.6087 30.276 71.4453 29.232 73.572C28.2267 75.6987 27.666 77.9607 27.55 80.358V81.228C27.55 83.78 28.0333 86.1773 29 88.42C29.9667 90.6627 31.2813 92.6153 32.944 94.278C34.6067 95.902 36.5593 97.1973 38.802 98.164C41.0447 99.1307 43.4227 99.614 45.936 99.614C48.4107 99.614 50.6727 99.1307 52.722 98.164C54.7713 97.1973 56.5307 95.902 58 94.278C59.4693 92.6153 60.61 90.6627 61.422 88.42C62.234 86.1773 62.64 83.78 62.64 81.228ZM100.128 48.864C100.128 47.6267 100.476 46.5633 101.172 45.674C101.868 44.7847 102.951 44.34 104.42 44.34H117.702C118.166 44.34 118.669 44.456 119.21 44.688C119.751 44.8813 120.254 45.1907 120.718 45.616C121.182 46.0027 121.569 46.4667 121.878 47.008C122.226 47.5493 122.4 48.168 122.4 48.864V113.534C122.4 115.003 121.994 116.125 121.182 116.898C120.37 117.633 119.21 118 117.702 118H104.42C101.559 118 100.128 116.511 100.128 113.534V48.864ZM100.128 19.516C100.128 17.892 100.476 16.7513 101.172 16.094C101.868 15.398 102.951 15.05 104.42 15.05H117.876C119.229 15.05 120.312 15.398 121.124 16.094C121.975 16.7513 122.4 17.892 122.4 19.516V30.826C122.4 31.29 122.284 31.7927 122.052 32.334C121.859 32.8753 121.569 33.3973 121.182 33.9C120.795 34.4027 120.312 34.828 119.732 35.176C119.191 35.4853 118.572 35.64 117.876 35.64H104.42C101.559 35.64 100.128 34.0353 100.128 30.826V19.516ZM136.497 115.796C136.381 115.255 136.477 114.733 136.787 114.23C137.096 113.689 137.367 113.244 137.599 112.896L160.683 80.358L138.817 49.27C138.43 48.7673 138.101 48.226 137.831 47.646C137.56 47.066 137.444 46.544 137.483 46.08C137.56 45.5773 137.811 45.1713 138.237 44.862C138.701 44.514 139.455 44.34 140.499 44.34H158.711C159.368 44.34 159.929 44.63 160.393 45.21C160.895 45.7513 161.456 46.4667 162.075 47.356L173.153 65.278C173.887 64.234 174.738 62.9193 175.705 61.334C176.671 59.71 177.657 58.0473 178.663 56.346C179.707 54.606 180.693 52.924 181.621 51.3C182.587 49.676 183.419 48.3033 184.115 47.182C184.772 46.1767 185.371 45.4613 185.913 45.036C186.493 44.572 187.169 44.34 187.943 44.34H206.329C206.793 44.34 207.218 44.4367 207.605 44.63C208.03 44.8233 208.359 45.094 208.591 45.442C208.823 45.79 208.919 46.196 208.881 46.66C208.842 47.124 208.591 47.6267 208.127 48.168L185.449 80.184L208.011 111.736C208.475 112.393 208.861 113.089 209.171 113.824C209.519 114.559 209.673 115.235 209.635 115.854C209.596 116.473 209.306 116.995 208.765 117.42C208.262 117.807 207.392 118 206.155 118H187.363C185.623 118 184.327 116.995 183.477 114.984L173.153 96.424L162.713 115.216C162.287 116.067 161.746 116.743 161.089 117.246C160.431 117.749 159.793 118 159.175 118H138.991C138.449 118 137.985 117.884 137.599 117.652C137.212 117.42 136.883 116.995 136.613 116.376L136.497 115.796Z" fill="black"/>
<path d="M57.9257 165.645C54.4332 165.645 51.2418 164.802 48.3515 163.116C45.4783 161.43 43.2074 159.151 41.5386 156.277C39.8869 153.404 39.0611 150.247 39.0611 146.806C39.0611 143.366 39.8869 140.209 41.5386 137.335C43.2074 134.462 45.4783 132.2 48.3515 130.548C51.2246 128.88 54.416 128.045 57.9257 128.045C60.059 128.045 62.0977 128.372 64.0418 129.026C66.0031 129.68 67.7751 130.6 69.3579 131.787C69.6504 132.011 69.7966 132.269 69.7966 132.561C69.7966 132.785 69.7106 133.009 69.5386 133.232L65.3579 138.703C65.1171 138.996 64.859 139.142 64.5837 139.142C64.3601 139.142 64.1364 139.065 63.9128 138.91C63.0353 138.308 62.0805 137.834 61.0482 137.49C60.016 137.129 58.9751 136.948 57.9257 136.948C56.2568 136.948 54.6998 137.387 53.2547 138.265C51.8095 139.125 50.6482 140.312 49.7708 141.826C48.9106 143.34 48.4805 145.009 48.4805 146.832C48.4805 148.656 48.9106 150.325 49.7708 151.839C50.6482 153.353 51.8095 154.548 53.2547 155.426C54.7171 156.303 56.274 156.742 57.9257 156.742C59.1128 156.742 60.1536 156.596 61.0482 156.303C61.9601 155.994 62.9321 155.469 63.9644 154.729C64.2052 154.574 64.4375 154.497 64.6611 154.497C64.9536 154.497 65.2117 154.643 65.4353 154.935L69.5386 160.432C69.7278 160.708 69.8224 160.948 69.8224 161.155C69.8224 161.396 69.6934 161.619 69.4353 161.826C67.8353 163.047 66.0547 163.994 64.0934 164.665C62.1321 165.318 60.0762 165.645 57.9257 165.645ZM87.4408 164.019C87.3548 164.673 86.9935 165 86.3569 165H79.0537C78.7096 165 78.4515 164.905 78.2795 164.716C78.1074 164.527 78.0386 164.26 78.073 163.916L82.4859 129.697C82.5203 129.387 82.6322 129.155 82.8214 129C83.0279 128.828 83.2859 128.742 83.5956 128.742H92.1376C92.7397 128.742 93.1182 129.034 93.273 129.619L99.5182 152.148L105.738 129.619C105.892 129.034 106.271 128.742 106.873 128.742H115.441C115.75 128.742 116 128.828 116.189 129C116.396 129.155 116.516 129.387 116.55 129.697L120.989 163.942C121.024 164.286 120.955 164.553 120.783 164.742C120.611 164.931 120.353 165.026 120.009 165.026H112.679C112.043 165.026 111.682 164.699 111.596 164.045L109.428 143.658L103.854 164.123C103.699 164.708 103.32 165 102.718 165H96.4214C95.8193 165 95.4408 164.708 95.2859 164.123L89.7117 143.658L87.4408 164.019ZM143.58 165.619C140.81 165.619 138.195 165.086 135.735 164.019C133.292 162.953 131.159 161.396 129.335 159.348C129.129 159.108 129.025 158.875 129.025 158.652C129.025 158.394 129.154 158.135 129.413 157.877L133.98 153.542C134.204 153.318 134.436 153.206 134.677 153.206C134.952 153.206 135.202 153.335 135.425 153.594C136.527 154.729 137.757 155.589 139.116 156.174C140.475 156.742 141.886 157.026 143.348 157.026C144.81 157.026 145.903 156.776 146.625 156.277C147.348 155.778 147.709 155.099 147.709 154.239C147.709 153.654 147.546 153.146 147.219 152.716C146.909 152.286 146.299 151.856 145.387 151.426C144.492 150.996 143.176 150.523 141.438 150.006C138.565 149.163 136.002 147.822 133.748 145.981C131.511 144.123 130.393 141.619 130.393 138.471C130.393 136.596 130.866 134.867 131.813 133.284C132.759 131.701 134.204 130.437 136.148 129.49C138.092 128.527 140.484 128.045 143.322 128.045C145.714 128.045 148.002 128.475 150.187 129.335C152.372 130.196 154.316 131.357 156.019 132.819C156.277 133.043 156.406 133.292 156.406 133.568C156.406 133.809 156.303 134.049 156.096 134.29L151.916 138.987C151.692 139.262 151.443 139.4 151.167 139.4C150.944 139.4 150.711 139.305 150.471 139.116C149.507 138.359 148.415 137.723 147.193 137.206C145.972 136.673 144.767 136.406 143.58 136.406C141.154 136.406 139.942 137.12 139.942 138.548C139.942 139.151 140.139 139.658 140.535 140.071C140.931 140.484 141.456 140.837 142.109 141.129C142.78 141.422 143.804 141.809 145.18 142.29C145.37 142.342 145.653 142.437 146.032 142.574C148.475 143.434 150.496 144.355 152.096 145.335C153.696 146.316 154.935 147.52 155.813 148.948C156.69 150.359 157.129 152.062 157.129 154.058C157.129 156.363 156.57 158.394 155.451 160.148C154.333 161.886 152.75 163.237 150.703 164.2C148.656 165.146 146.281 165.619 143.58 165.619Z" fill="url(#paint1_linear_243_7)"/>
<defs>
<linearGradient id="paint0_linear_243_7" x1="244" y1="69" x2="196.5" y2="150.5" gradientUnits="userSpaceOnUse">
<stop stop-color="#CB63FC"/>
<stop offset="1" stop-color="#9663FC"/>
</linearGradient>
<linearGradient id="paint1_linear_243_7" x1="98" y1="123" x2="98" y2="171" gradientUnits="userSpaceOnUse">
<stop stop-color="#9663FC"/>
<stop offset="1" stop-color="#CB63FC"/>
</linearGradient>
</defs>
</svg>
